<svg width="340" height="52" viewBox="0 0 340 52" fill="none" xmlns="http://www.w3.org/2000/svg">
<rect x="289" y="1" width="50" height="50" rx="25" stroke="#F1CDB3" stroke-width="2"/>
<path d="M311.005 27.0879L301.972 31.7852V30.4473L309.482 26.5312L301.972 22.625V21.2871L311.005 25.9844V27.0879ZM325.077 27.0879L316.043 31.7852V30.4473L323.553 26.5312L316.043 22.625V21.2871L325.077 25.9844V27.0879Z" fill="#292929"/>
<rect x="217" y="1" width="50" height="50" rx="25" stroke="#F1CDB3" stroke-width="2"/>
<path d="M246.041 27.0879L237.008 31.7852V30.4473L244.518 26.5312L237.008 22.625V21.2871L246.041 25.9844V27.0879Z" fill="#292929"/>
<rect x="144" width="52" height="52" rx="26" fill="#F1CDB3"/>
<path d="M173.104 32H166.521V31.3066C166.717 31.2936 167.02 31.2676 167.43 31.2285C167.846 31.1829 168.133 31.1374 168.289 31.0918C168.491 31.0267 168.644 30.9225 168.748 30.7793C168.859 30.6296 168.914 30.4082 168.914 30.1152V23.2598H166.482V22.4395H167.02C167.723 22.4395 168.351 22.3092 168.904 22.0488C169.464 21.7884 169.865 21.5085 170.105 21.209H170.916C170.896 21.6322 170.877 22.127 170.857 22.6934C170.838 23.2598 170.828 23.7676 170.828 24.2168V30.0078C170.828 30.2357 170.877 30.4408 170.975 30.623C171.079 30.7988 171.225 30.929 171.414 31.0137C171.583 31.0853 171.86 31.1504 172.244 31.209C172.628 31.2676 172.915 31.3001 173.104 31.3066V32Z" fill="#292929"/>
<rect x="73" y="1" width="50" height="50" rx="25" stroke="#CDCDCD" stroke-width="2"/>
<path d="M101.982 31.7852L92.9492 27.0879V25.9844L101.982 21.2871V22.625L94.4727 26.5312L101.982 30.4473V31.7852Z" fill="#CDCDCD"/>
<rect x="1" y="1" width="50" height="50" rx="25" stroke="#CDCDCD" stroke-width="2"/>
<path d="M22.9469 31.7852L13.9137 27.0879V25.9844L22.9469 21.2871V22.625L15.4371 26.5312L22.9469 30.4473V31.7852ZM37.018 31.7852L27.9848 27.0879V25.9844L37.018 21.2871V22.625L29.5082 26.5312L37.018 30.4473V31.7852Z" fill="#CDCDCD"/>
</svg>
